<?xml version="1.0" standalone="no"?>
<!DOCTYPE svg PUBLIC "-//W3C//DTD SVG 20010904//EN"
 "http://www.w3.org/TR/2001/REC-SVG-20010904/DTD/svg10.dtd">
<svg version="1.0" xmlns="http://www.w3.org/2000/svg"
 width="1696.000000pt" height="1696.000000pt" viewBox="0 0 1696.000000 1696.000000"
 preserveAspectRatio="xMidYMid meet">
<metadata>
Created by potrace 1.11, written by Peter Selinger 2001-2013
</metadata>
<g transform="translate(0.000000,1696.000000) scale(0.100000,-0.100000)"
fill="#000000" stroke="none">
<path d="M4365 12162 c-35 -7 -84 -51 -92 -82 -5 -17 -8 -113 -7 -214 1 -171
3 -186 23 -214 21 -30 90 -62 121 -56 34 5 70 24 93 50 25 27 26 28 27 225 0
162 -2 204 -15 229 -24 46 -91 74 -150 62z"/>
<path d="M8985 11932 c-38 -4 -126 -32 -142 -45 -7 -5 -13 -6 -13 -3 0 8 -74
-42 -111 -75 -181 -163 -152 -448 60 -584 35 -22 66 -40 69 -41 4 0 18 -5 32
-11 52 -22 141 -34 207 -28 66 5 138 21 158 33 6 4 15 7 22 8 24 4 125 78 159
118 59 67 86 138 89 231 1 44 -2 87 -6 95 -4 8 -15 35 -25 59 -24 57 -111 147
-183 189 -69 40 -215 65 -316 54z m182 -253 c61 -37 91 -86 87 -142 -9 -100
-91 -167 -199 -163 -84 4 -111 18 -176 94 -17 21 -19 107 -2 139 49 95 193
131 290 72z"/>
<path d="M3950 11605 c0 -6 -50 -10 -118 -9 -64 0 -129 -4 -143 -8 -40 -14
-70 -51 -76 -96 -5 -35 -1 -44 30 -78 l35 -39 246 -3 c207 -3 250 -1 275 13
81 41 88 142 14 190 -21 14 -48 19 -115 19 -48 1 -88 5 -88 9 0 4 -8 3 -18 -2
-13 -7 -23 -6 -30 1 -7 7 -12 8 -12 3z"/>
<path d="M4736 11602 c-3 -5 -27 -8 -53 -7 -129 8 -197 -97 -119 -183 l34 -37
240 -3 c194 -2 247 0 275 12 42 17 70 56 70 97 0 72 -59 116 -155 115 -32 -1
-58 2 -58 7 0 4 -8 3 -18 -2 -13 -7 -23 -6 -30 1 -7 7 -12 8 -12 3 0 -12 -153
-13 -161 -1 -4 4 -9 4 -13 -2z"/>
<path d="M7523 11380 c-33 -15 -124 -79 -188 -132 -152 -125 -232 -193 -289
-248 -84 -81 -226 -222 -226 -226 0 -2 -15 -18 -32 -36 -50 -51 -177 -204
-239 -288 -66 -89 -149 -209 -149 -216 0 -3 -11 -20 -24 -37 -13 -18 -38 -59
-56 -92 -17 -33 -36 -64 -40 -70 -5 -5 -9 -13 -10 -17 0 -4 -23 -54 -49 -110
-27 -57 -61 -140 -77 -185 l-29 -81 -30 12 c-16 7 -52 23 -80 36 -85 38 -113
50 -118 50 -2 0 -22 8 -43 17 -22 9 -41 17 -44 18 -3 0 -11 4 -17 8 -7 5 -13
6 -13 2 0 -3 -17 2 -37 11 -69 29 -387 120 -458 131 -16 2 -37 6 -45 9 -8 3
-26 8 -40 10 -14 2 -45 9 -70 14 -47 10 -91 17 -150 25 -40 6 -84 13 -120 19
-25 5 -78 11 -185 21 -33 3 -78 8 -100 11 -135 17 -651 26 -725 12 -32 -6 -54
-18 -77 -43 -29 -30 -33 -42 -34 -92 -6 -254 3 -461 26 -633 3 -25 8 -61 10
-80 3 -19 7 -46 10 -60 3 -14 8 -41 11 -60 6 -41 8 -52 29 -144 8 -38 22 -93
30 -121 9 -29 17 -61 20 -71 4 -23 60 -191 76 -231 6 -15 15 -37 19 -48 54
-139 208 -434 254 -484 9 -10 16 -23 16 -29 0 -7 5 -12 10 -12 6 0 10 -6 10
-14 0 -8 3 -16 8 -18 4 -1 40 -45 80 -96 l73 -93 -35 -14 c-20 -8 -39 -15 -42
-15 -8 0 -117 -42 -169 -64 -16 -8 -59 -26 -95 -42 -73 -31 -372 -183 -380
-193 -3 -3 -20 -14 -38 -23 -106 -58 -119 -67 -169 -114 -59 -57 -44 -110 57
-199 24 -22 54 -49 65 -60 12 -11 39 -33 61 -49 21 -17 41 -32 44 -35 13 -15
99 -81 105 -81 3 0 13 -6 21 -14 17 -18 271 -186 280 -186 3 0 18 -8 32 -19
15 -10 74 -42 132 -72 58 -30 107 -56 110 -59 3 -3 19 -10 35 -17 17 -6 86
-35 155 -63 129 -53 296 -110 331 -113 10 -1 19 -5 19 -9 0 -4 9 -8 20 -8 10
0 45 -7 77 -15 32 -9 74 -18 93 -21 19 -3 42 -7 49 -10 8 -3 35 -7 60 -10 26
-3 57 -7 71 -10 60 -12 177 -18 330 -17 142 0 325 8 325 13 0 1 16 3 35 5 41
3 160 20 210 30 44 9 74 15 100 20 14 3 40 9 58 14 17 5 32 8 32 5 0 -3 8 0
18 5 9 5 34 12 54 15 l37 6 -14 -45 c-17 -57 -12 -169 8 -202 5 -7 6 -13 2
-13 -8 0 33 -79 75 -140 46 -67 173 -195 255 -256 33 -25 67 -50 75 -57 145
-112 601 -362 640 -350 3 0 19 3 36 6 16 3 49 14 72 26 23 12 42 18 42 14 0
-5 4 -3 8 2 4 6 75 43 157 84 83 41 152 77 155 80 3 4 16 12 30 19 74 38 104
57 202 124 129 89 159 113 249 203 123 122 179 228 183 347 1 37 0 68 -4 68
-3 0 -7 10 -8 23 l-1 24 62 -14 c70 -15 119 -23 232 -38 186 -25 581 -25 730
0 127 22 214 40 300 61 55 14 105 27 110 28 6 1 48 15 95 31 47 16 87 30 90
30 3 1 14 5 25 10 11 4 47 19 80 32 109 44 293 134 395 192 126 73 225 135
228 143 2 5 8 8 13 8 6 0 15 4 22 10 7 5 37 28 67 49 30 22 60 44 65 49 6 5
29 22 51 38 22 16 46 35 54 42 8 7 35 29 60 50 139 115 184 170 176 214 -3 13
-5 27 -5 31 -1 13 -71 76 -92 82 -10 4 -19 11 -19 16 0 5 -5 9 -10 9 -6 0 -27
11 -48 24 -20 12 -41 24 -47 26 -5 1 -21 10 -35 20 -53 38 -429 220 -454 220
-6 0 -20 6 -31 13 -11 8 -64 29 -117 48 -54 19 -98 37 -98 40 0 5 8 16 58 75
9 11 26 33 37 48 11 16 25 33 30 40 17 18 118 175 162 251 36 62 87 165 135
275 41 93 138 376 143 420 1 8 9 42 18 75 9 33 19 78 23 100 3 22 8 43 9 46 2
3 7 28 10 55 3 27 8 60 11 74 2 14 6 34 8 45 2 11 7 47 10 80 4 33 9 77 12 97
2 21 6 84 9 140 3 57 7 115 9 131 2 15 -1 27 -6 27 -5 0 -6 5 -3 10 9 15 13
100 4 105 -4 3 -3 20 1 39 4 19 5 37 2 40 -3 3 -6 22 -8 41 -4 62 -43 102
-109 113 -69 11 -645 4 -645 -8 0 -3 -21 -5 -47 -5 -48 -1 -177 -11 -223 -19
-14 -3 -50 -7 -80 -11 -74 -8 -165 -22 -165 -25 0 -1 -15 -3 -34 -6 -42 -5
-271 -52 -341 -69 -76 -19 -254 -73 -335 -101 -55 -20 -104 -37 -110 -38 -5
-2 -22 -8 -37 -14 -41 -17 -72 -30 -78 -30 -3 -1 -43 -20 -89 -42 -46 -23 -87
-37 -92 -33 -4 4 -25 62 -47 129 -39 119 -49 142 -120 299 -54 118 -195 364
-251 437 -12 14 -21 31 -21 37 0 6 -4 11 -8 11 -4 0 -16 15 -27 33 -10 17 -29
43 -42 57 -13 14 -23 28 -23 32 0 3 -6 13 -12 20 -7 7 -31 36 -53 63 -22 28
-44 55 -50 61 -5 7 -28 33 -50 59 -125 149 -374 398 -473 473 -46 35 -102 43
-149 22z m158 -363 c154 -153 223 -229 364 -407 71 -90 255 -352 255 -364 0
-3 15 -29 33 -58 42 -66 167 -321 167 -340 0 -8 5 -19 12 -26 7 -7 8 -12 4
-12 -5 0 -4 -6 2 -12 15 -20 84 -242 87 -283 0 -5 -33 -33 -73 -61 -40 -27
-82 -57 -93 -65 -26 -18 -42 -18 -44 1 -11 74 -102 331 -126 355 -5 5 -9 17
-9 27 0 10 -4 18 -9 18 -5 0 -13 10 -17 22 -8 25 -84 153 -133 223 -32 45 -52
72 -154 200 -49 62 -297 311 -327 329 -75 44 -156 22 -251 -66 -11 -10 -22
-18 -25 -18 -3 0 -11 -6 -18 -12 -7 -7 -44 -40 -82 -73 -99 -86 -252 -243
-320 -327 -32 -40 -63 -78 -68 -83 -20 -19 -96 -134 -96 -145 0 -5 -4 -10 -8
-10 -5 0 -26 -35 -48 -77 -21 -43 -42 -80 -45 -83 -7 -5 -39 -74 -45 -95 -1
-5 -16 -47 -33 -92 -17 -46 -28 -83 -24 -83 4 0 2 -5 -4 -11 -8 -8 -38 8 -107
56 -53 37 -96 68 -96 69 0 1 12 36 26 77 14 41 26 80 27 87 0 6 5 12 10 12 5
0 7 7 3 15 -3 8 -1 15 4 15 6 0 9 3 8 8 -1 4 7 25 17 47 10 22 19 42 20 45 5
20 96 189 150 278 30 51 148 220 182 262 107 133 170 206 298 340 130 137 450
420 476 420 3 0 53 -46 110 -103z m-93 -759 c85 -88 136 -145 162 -178 14 -18
30 -37 35 -44 6 -6 28 -36 50 -66 22 -30 43 -56 47 -58 5 -2 8 -8 8 -14 0 -6
11 -25 23 -42 38 -50 150 -256 140 -256 -3 0 -1 -6 5 -12 28 -34 86 -243 98
-353 8 -77 7 -86 -19 -114 -13 -14 -29 -33 -36 -41 -6 -8 -29 -35 -51 -59 -22
-24 -40 -48 -40 -52 0 -5 -8 -16 -18 -26 -71 -71 -334 -518 -315 -537 4 -3 1
-6 -5 -6 -7 0 -12 -8 -12 -18 0 -10 -3 -22 -7 -26 -18 -18 -114 -296 -107
-308 3 -4 1 -8 -4 -8 -5 0 -9 -6 -10 -12 -1 -7 -11 -57 -23 -110 -21 -93 -33
-120 -36 -80 0 9 -3 26 -6 37 -3 11 -10 43 -17 70 -6 28 -16 66 -22 85 -14 45
-19 64 -19 70 -1 3 -5 11 -11 18 -6 6 -8 12 -5 12 6 0 -31 107 -79 225 -38 96
-174 365 -194 385 -3 3 -11 17 -19 33 -8 15 -18 27 -23 27 -4 0 -8 5 -8 12 0
21 -154 218 -248 317 -41 44 -43 48 -38 91 10 72 23 128 43 180 4 8 7 17 7 20
5 23 50 132 57 136 5 3 9 11 9 19 0 19 166 285 191 305 3 3 32 37 64 75 65 77
214 227 289 290 26 22 53 45 59 52 20 21 33 15 85 -39z m-3178 -442 c98 -5
164 -11 235 -21 17 -2 59 -7 95 -11 78 -8 105 -12 105 -14 0 -1 14 -3 30 -4
47 -5 113 -16 210 -37 50 -10 101 -20 115 -23 23 -4 200 -50 295 -76 85 -24
254 -85 332 -121 23 -10 44 -19 47 -19 7 0 191 -91 237 -117 20 -12 47 -27 60
-35 125 -71 288 -197 403 -312 89 -88 216 -237 216 -254 0 -6 4 -12 8 -14 10
-4 76 -102 117 -172 28 -50 129 -247 130 -256 0 -3 15 -41 32 -85 75 -192 147
-455 168 -615 2 -14 6 -38 9 -55 3 -16 8 -52 11 -80 3 -27 8 -66 11 -85 9 -59
13 -108 18 -276 5 -125 3 -163 -7 -166 -15 -5 -261 -1 -372 6 -214 14 -252 17
-275 21 -14 3 -50 7 -80 11 -30 3 -66 7 -80 10 -14 2 -45 7 -70 10 -25 3 -56
7 -70 10 -14 3 -41 8 -60 11 -19 2 -64 11 -100 19 -36 8 -76 17 -90 20 -14 2
-33 7 -42 10 -9 3 -26 7 -37 9 -12 3 -30 7 -41 10 -11 3 -30 7 -42 10 -80 17
-373 114 -452 149 -189 84 -262 121 -379 192 -76 46 -182 121 -259 181 -39 32
-222 217 -263 267 -62 76 -145 193 -145 204 0 6 -4 12 -8 14 -20 8 -138 235
-192 369 -23 57 -46 113 -50 124 -9 20 -22 60 -26 80 -1 6 -9 29 -18 53 -8 23
-16 46 -16 50 0 4 -5 25 -11 47 -6 22 -13 48 -15 59 -2 10 -8 33 -14 50 -5 17
-12 45 -14 61 -3 17 -7 40 -9 51 -5 20 -10 47 -23 129 -3 17 -7 46 -9 65 -2
19 -6 53 -9 75 -12 74 -16 139 -22 313 l-7 173 159 -4 c88 -3 206 -7 264 -11z
m6564 -104 c-2 -111 -10 -252 -18 -317 -20 -171 -39 -283 -66 -400 -6 -27 -13
-59 -16 -69 -7 -36 -55 -201 -70 -239 -7 -20 -14 -39 -14 -42 -2 -28 -132
-328 -153 -354 -6 -7 -12 -18 -13 -25 -4 -26 -177 -290 -214 -326 -3 -3 -21
-25 -41 -50 -44 -54 -169 -180 -223 -224 -22 -17 -47 -39 -58 -48 -10 -10 -22
-18 -28 -18 -5 0 -10 -4 -10 -10 0 -5 -6 -10 -14 -10 -8 0 -16 -7 -20 -15 -3
-9 -14 -19 -23 -23 -10 -4 -44 -24 -75 -45 -31 -20 -61 -37 -67 -37 -5 0 -11
-4 -13 -8 -3 -10 -19 -19 -150 -84 -110 -54 -207 -99 -222 -103 -6 -1 -24 -8
-41 -15 -16 -7 -39 -15 -49 -17 -11 -2 -24 -7 -30 -12 -6 -4 -24 -12 -41 -16
-35 -10 -35 -10 -55 -18 -25 -10 -233 -69 -255 -72 -11 -1 -49 -10 -85 -19
-36 -9 -75 -18 -87 -21 -13 -3 -33 -7 -45 -10 -13 -3 -39 -8 -58 -11 -19 -2
-46 -7 -60 -10 -14 -2 -34 -6 -46 -8 -12 -2 -45 -7 -74 -11 -29 -4 -60 -8 -69
-10 -9 -1 -41 -6 -71 -9 -30 -4 -75 -9 -100 -12 -156 -18 -594 -36 -626 -26
-21 6 1 415 31 582 6 33 13 76 20 125 11 74 75 325 106 413 17 48 32 94 34
102 2 8 4 16 5 18 2 1 3 5 5 10 1 4 9 24 18 44 10 21 17 40 17 43 0 15 133
275 141 275 5 0 8 4 7 9 -5 14 122 200 198 291 80 97 203 219 284 282 30 23
57 45 60 48 3 3 41 29 85 58 44 29 85 57 92 62 7 6 17 10 23 10 5 0 10 4 10 9
0 5 14 12 30 16 17 4 30 10 30 14 0 12 340 168 395 181 6 1 33 11 60 22 28 11
55 21 60 22 6 2 30 9 55 16 57 17 53 16 70 23 51 19 417 101 505 112 17 2 41
6 55 9 58 11 206 29 248 30 12 0 22 2 22 6 0 3 21 5 48 6 50 1 286 16 289 18
1 0 68 2 150 3 l149 2 -2 -117z m-6291 -2248 c45 -37 133 -100 196 -141 121
-81 414 -236 425 -226 3 4 6 0 6 -7 0 -7 3 -11 6 -7 4 3 20 -1 37 -10 46 -24
303 -116 387 -139 84 -23 209 -55 225 -58 11 -2 38 -9 60 -14 22 -6 54 -13 70
-16 17 -3 39 -7 50 -9 34 -7 93 -18 128 -22 17 -3 43 -7 57 -10 14 -3 45 -8
70 -11 25 -3 52 -7 60 -9 8 -2 47 -7 85 -11 39 -3 84 -8 100 -10 31 -4 130
-11 248 -18 38 -2 71 -7 74 -9 6 -7 -180 -97 -201 -97 -8 0 -18 -5 -21 -10 -4
-6 -11 -8 -16 -5 -5 4 -9 1 -9 -6 0 -7 -3 -10 -6 -7 -3 4 -22 -1 -42 -9 -31
-13 -184 -63 -242 -78 -8 -3 -33 -9 -55 -15 -22 -6 -49 -13 -60 -15 -11 -2
-20 -4 -20 -5 0 -5 -299 -59 -370 -66 -94 -10 -453 -11 -540 -1 -80 9 -98 12
-175 28 -30 6 -64 12 -75 14 -88 16 -352 99 -410 129 -16 9 -34 16 -39 16 -15
0 -171 73 -174 82 -2 4 -10 8 -17 8 -14 0 -180 85 -195 100 -3 3 -21 14 -40
24 -43 23 -203 126 -210 135 -3 3 -27 21 -55 40 -27 18 -87 63 -132 100 l-82
66 22 17 c12 10 37 23 55 30 17 7 32 15 32 18 0 4 16 12 35 20 19 8 35 17 35
22 0 4 4 8 9 8 5 0 60 24 123 54 193 91 447 193 491 195 10 1 55 -29 100 -65z
m5834 21 c184 -68 421 -177 613 -281 38 -21 66 -44 53 -44 -5 0 -24 -14 -43
-32 -19 -17 -80 -65 -135 -105 -55 -40 -105 -77 -111 -81 -5 -5 -21 -15 -35
-22 -13 -7 -26 -16 -29 -19 -10 -13 -158 -101 -169 -101 -6 0 -11 -4 -11 -8 0
-4 -15 -15 -32 -23 -18 -9 -82 -41 -143 -71 -113 -58 -320 -145 -360 -152 -13
-2 -32 -9 -42 -15 -11 -5 -30 -11 -44 -13 -13 -2 -28 -6 -34 -9 -9 -5 -49 -18
-80 -24 -5 -2 -44 -10 -85 -19 -115 -25 -122 -27 -275 -45 -67 -8 -428 -6
-510 3 -67 8 -127 16 -185 26 -30 5 -70 12 -89 15 -19 3 -38 8 -41 10 -4 3
-25 7 -46 11 -22 3 -52 9 -69 15 -68 20 -211 63 -220 65 -5 1 -53 28 -105 61
-52 33 -119 70 -147 84 -29 13 -53 27 -53 32 0 4 19 7 43 8 84 2 174 10 287
24 19 3 55 7 80 10 25 3 74 10 110 16 36 6 76 12 90 14 14 2 50 9 80 15 30 6
69 13 85 16 59 10 321 76 380 96 33 10 67 21 75 23 40 10 218 74 265 94 11 5
43 19 70 31 108 48 276 133 310 156 20 13 38 24 41 24 4 0 108 67 129 83 6 4
35 26 65 48 30 21 73 54 94 72 22 17 47 38 55 45 21 16 49 10 168 -33z m-2926
-794 c149 -52 200 -73 364 -152 148 -72 267 -142 311 -184 12 -11 40 -37 63
-59 80 -74 99 -152 59 -234 -27 -55 -131 -161 -225 -231 -37 -28 -73 -55 -80
-61 -7 -5 -17 -10 -23 -10 -5 0 -10 -4 -10 -8 0 -5 -15 -16 -32 -25 -18 -9
-42 -23 -53 -29 -78 -51 -340 -188 -358 -188 -6 0 -18 -7 -28 -16 -17 -15 -23
-14 -91 19 -78 39 -206 107 -223 119 -5 5 -62 42 -125 84 -256 169 -388 313
-404 436 -6 51 30 123 95 189 53 52 132 119 143 119 3 0 36 20 74 44 105 68
360 193 385 188 4 -1 7 2 7 7 0 8 19 15 56 20 6 0 49 -12 95 -28z"/>
<path d="M4623 9379 c-17 -5 -42 -23 -54 -41 -27 -38 -28 -111 -4 -273 3 -22
8 -50 10 -62 7 -32 15 -74 19 -98 16 -88 84 -300 120 -378 14 -29 26 -59 26
-65 0 -6 6 -17 13 -24 6 -8 30 -49 52 -91 22 -42 44 -77 48 -77 5 0 6 -4 3 -9
-4 -5 -2 -11 2 -13 5 -1 28 -32 51 -67 45 -66 220 -248 284 -295 70 -51 119
-62 178 -38 24 10 79 72 64 72 -3 0 -2 8 4 17 13 24 -18 81 -60 113 -62 45
-117 97 -194 185 -45 51 -144 207 -179 280 -55 115 -70 149 -71 160 -1 6 -7
24 -14 40 -44 103 -104 397 -112 545 -5 98 -84 148 -186 119z"/>
<path d="M10280 9394 c-53 -34 -57 -46 -63 -244 -4 -102 -9 -198 -12 -215 -2
-16 -6 -42 -7 -57 -1 -16 -5 -28 -8 -28 -3 0 -5 -10 -6 -22 -1 -34 -12 -92
-23 -122 -6 -14 -8 -26 -5 -26 2 0 0 -8 -5 -18 -6 -11 -12 -30 -15 -43 -9 -48
-60 -176 -105 -264 -57 -111 -136 -219 -228 -311 -39 -39 -72 -82 -75 -96 -7
-38 18 -92 54 -112 32 -20 113 -25 141 -10 48 28 190 182 252 274 16 25 32 47
35 50 10 10 90 166 118 230 20 45 69 178 71 193 0 4 2 9 2 12 1 3 3 10 4 15 1
6 3 11 5 13 2 2 2 5 25 112 18 85 20 93 30 167 23 171 26 412 6 449 -35 63
-132 90 -191 53z"/>
<path d="M4334 11356 c-63 -35 -70 -63 -68 -289 l1 -188 28 -29 c15 -16 40
-33 54 -38 38 -13 102 -5 131 16 46 34 50 55 50 259 0 164 -2 196 -17 222 -30
51 -126 77 -179 47z"/>
<path d="M5815 10800 c-109 -24 -139 -145 -50 -200 44 -27 93 -30 137 -8 48
23 68 53 68 102 0 32 -7 45 -36 73 -20 19 -39 32 -41 29 -3 -3 -15 -1 -27 3
-11 4 -35 5 -51 1z"/>
<path d="M10040 10800 c0 -4 -9 -6 -19 -3 -25 6 -74 -23 -93 -56 -32 -55 -4
-127 60 -153 33 -13 57 -14 97 -4 33 8 87 54 79 67 -2 4 0 10 6 14 13 8 1 64
-19 88 -26 30 -111 67 -111 47z"/>
<path d="M12898 9201 c-78 -27 -74 -20 -211 -346 -30 -72 -64 -151 -75 -175
-50 -113 -92 -217 -92 -228 0 -7 -4 -12 -10 -12 -5 0 -10 -6 -10 -14 0 -11
-22 -66 -76 -183 -8 -17 -14 -33 -14 -36 0 -2 -10 -26 -22 -53 -12 -27 -22
-51 -23 -54 0 -3 -13 -31 -28 -64 -15 -32 -27 -61 -27 -63 0 -3 -6 -19 -14
-36 -32 -69 -73 -162 -75 -169 -1 -4 -10 -28 -21 -54 -11 -25 -20 -50 -20 -55
0 -5 -5 -9 -12 -9 -6 0 -9 -3 -6 -6 5 -4 -72 -196 -116 -289 -8 -16 -47 -106
-86 -200 -87 -204 -93 -219 -95 -225 -4 -11 -37 -87 -53 -120 -9 -19 -17 -39
-18 -45 -2 -5 -21 -53 -44 -105 -42 -96 -62 -141 -65 -150 -4 -11 -26 -63 -44
-103 -10 -23 -31 -71 -46 -107 -15 -36 -33 -78 -40 -95 -8 -16 -82 -190 -165
-385 -83 -195 -159 -373 -169 -395 -35 -76 -44 -115 -31 -130 27 -32 129 -40
203 -16 49 16 70 44 112 146 20 50 41 96 47 103 6 6 8 12 4 12 -3 0 7 26 23
59 17 32 27 61 24 65 -4 3 -1 6 5 6 7 0 12 6 12 14 0 7 11 38 24 67 13 30 56
131 96 224 69 164 83 197 114 268 8 17 36 82 61 142 26 61 53 124 61 140 7 17
79 185 160 375 80 190 149 350 152 355 4 6 7 12 7 15 0 3 13 34 30 70 16 36
30 71 31 77 4 21 28 73 35 73 3 0 6 6 6 13 0 6 22 62 48 122 66 154 69 162
103 238 17 37 29 67 26 67 -3 0 2 12 10 28 8 15 23 47 34 72 11 25 26 61 35
80 17 41 122 287 139 327 6 16 11 31 10 36 -1 4 2 7 8 7 6 0 10 6 10 14 0 11
55 143 102 246 6 14 12 27 13 30 1 3 9 23 19 45 10 22 33 78 53 125 19 47 41
99 48 115 41 92 43 100 28 128 -7 15 -17 28 -21 28 -43 8 -127 2 -164 -10z"/>
<path d="M2700 8168 c-315 -155 -744 -365 -775 -379 -11 -5 -27 -13 -35 -19
-25 -16 -389 -190 -396 -189 -4 0 -10 -3 -13 -8 -3 -4 -26 -18 -51 -30 -530
-258 -701 -346 -726 -369 -50 -48 -89 -109 -113 -176 -8 -21 -6 -32 9 -51 18
-23 115 -87 115 -76 0 2 14 -5 30 -17 26 -18 59 -34 68 -33 1 0 35 -18 76 -40
41 -23 79 -41 85 -41 7 0 16 -4 22 -9 13 -12 376 -195 392 -197 8 -2 21 -9 30
-16 15 -12 66 -39 82 -43 3 0 73 -35 155 -77 819 -415 1314 -658 1341 -658 17
0 37 7 44 15 23 27 15 117 -14 176 -9 18 -16 37 -16 43 0 23 -59 73 -126 106
-38 19 -72 38 -75 43 -3 5 -9 8 -13 7 -13 -2 -1780 878 -1784 889 -3 9 72 49
423 225 88 45 162 84 163 89 2 4 10 7 18 7 8 0 32 11 54 25 22 14 40 22 40 19
0 -4 6 -2 13 4 10 8 301 157 912 465 83 42 154 76 159 76 5 -1 12 3 15 8 3 4
27 19 52 31 48 25 121 82 104 82 -5 0 -2 5 7 11 15 8 56 85 62 114 1 6 4 15 7
20 11 21 10 87 -1 101 -7 7 -22 14 -34 13 -11 0 -149 -63 -306 -141z"/>
<path d="M13128 8273 c-52 -14 -30 -171 36 -259 29 -39 86 -69 761 -403 401
-199 737 -366 745 -370 8 -5 117 -60 243 -122 125 -63 227 -118 227 -124 0 -5
-59 -39 -130 -74 -72 -36 -133 -67 -136 -70 -3 -3 -9 -6 -12 -6 -7 -1 -68 -32
-128 -66 -19 -10 -41 -19 -48 -19 -8 0 -16 -3 -18 -8 -1 -4 -73 -42 -158 -85
-85 -43 -200 -102 -255 -130 -55 -28 -103 -50 -107 -49 -5 1 -8 -3 -8 -9 0 -5
-4 -8 -9 -5 -5 4 -11 3 -13 -1 -1 -5 -142 -78 -313 -163 -170 -85 -312 -157
-315 -160 -3 -3 -50 -27 -105 -55 -133 -65 -179 -97 -213 -148 -53 -78 -82
-179 -63 -215 20 -37 46 -31 195 43 80 40 146 70 146 66 0 -3 4 -1 8 4 8 12
178 95 193 95 5 0 9 5 9 10 0 6 5 10 10 10 15 0 224 102 231 113 3 5 8 7 10 6
4 -3 102 44 554 267 132 65 243 117 248 116 4 -1 7 2 7 8 0 6 3 9 8 8 10 -2
266 125 270 135 2 4 9 7 15 7 6 0 85 37 176 81 91 45 175 85 186 90 40 18 72
45 122 103 19 22 62 112 67 140 4 20 -3 32 -31 55 -19 16 -367 195 -772 398
-405 202 -737 371 -739 376 -2 4 -8 7 -13 7 -6 0 -191 91 -412 201 -221 111
-413 203 -427 204 -14 2 -33 1 -42 -2z"/>
</g>
</svg>
