<svg width="51" height="39" viewBox="0 0 51 39" fill="none" xmlns="http://www.w3.org/2000/svg">
<path d="M50.13 25.7432C50.0258 25.6713 47.7475 24.1123 44.3984 22.959C49.3329 17.4182 48.7017 9.40646 48.6697 9.04166C48.6393 8.69177 48.3177 8.41374 47.9132 8.3873C47.5327 8.36228 39.924 7.91391 33.734 10.9829C32.1498 4.94142 26.6152 0.391212 26.3698 0.191957C26.0741 -0.0479286 25.6201 -0.0649617 25.3011 0.152036C25.0193 0.343838 18.6453 4.745 16.6747 10.9682C10.4904 7.91551 2.9057 8.36264 2.5252 8.3873C2.1207 8.41374 1.79927 8.69177 1.7687 9.04166C1.7367 9.40646 1.10554 17.4178 6.03959 22.9586C2.69094 24.1117 0.413038 25.6708 0.308425 25.7432C0.13489 25.863 0.0251485 26.0384 0.00381562 26.2294C-0.0175173 26.4205 0.0511991 26.6107 0.194991 26.757C0.406269 26.9724 5.4517 32.0377 12.5871 32.5296C12.9648 32.5556 13.34 32.5679 13.712 32.5679C15.639 32.5679 17.4757 32.2382 19.0816 31.7931C18.9228 32.1665 18.8621 32.5415 18.9058 32.9169C19.2194 35.6098 24.6357 38.1092 25.2521 38.3853C25.3703 38.4382 25.4997 38.4648 25.6293 38.4648C25.7516 38.4648 25.8736 38.4412 25.9867 38.394C26.0554 38.3651 27.6904 37.6774 29.316 36.6768C31.6815 35.2208 32.8064 33.8424 32.6594 32.5798C32.6401 32.4135 32.5986 32.2506 32.5398 32.0911C33.9668 32.4071 35.3602 32.5688 36.7073 32.5688C37.0923 32.5688 37.4738 32.5558 37.851 32.5297C44.9863 32.0381 50.0319 26.9726 50.2432 26.7572C50.3868 26.611 50.4557 26.4206 50.4344 26.2295C50.413 26.0384 50.3035 25.863 50.13 25.7432ZM47.0601 9.77995C47.1021 11.9207 46.8433 18.9957 41.9365 23.24C37.0287 27.4852 28.8488 27.7102 26.375 27.6719C26.3307 25.5333 26.583 18.4645 31.499 14.212C36.4061 9.96696 44.5894 9.74305 47.0601 9.77995ZM25.2193 22.4332C24.6357 19.6676 23.3941 16.4361 20.8081 13.8667C21.1382 10.5264 24.2232 7.74465 25.5077 6.72211C26.6662 7.81881 29.388 10.7397 29.4732 14.0239C26.9934 16.567 25.791 19.7239 25.2193 22.4332ZM25.7604 1.67705C27.1957 2.98436 31.2081 6.99518 32.2563 11.8034C31.814 12.0782 31.3835 12.3747 30.9687 12.6944C30.1622 8.55533 26.3013 5.37559 26.1179 5.2269C25.8222 4.98702 25.3682 4.96999 25.0493 5.18698C24.8419 5.32804 20.4401 8.37204 19.3716 12.6204C18.9706 12.3167 18.5556 12.034 18.1298 11.7714C19.4972 6.8252 24.1469 2.91286 25.7604 1.67705ZM3.37852 9.77924C5.84862 9.74056 14.0232 9.95933 18.9392 14.2116C19.0728 14.3271 19.2012 14.4455 19.3279 14.5651C19.3523 14.5913 19.3786 14.6158 19.4069 14.6389C23.8626 18.916 24.1034 25.6032 24.0628 27.6724C21.5939 27.712 13.4181 27.4923 8.5019 23.24C3.59472 18.9952 3.33647 11.9185 3.37852 9.77924ZM12.7174 31.1146C7.60981 30.7625 3.54754 27.6841 2.05875 26.3985C3.02345 25.8277 4.87695 24.834 7.18111 24.1007C7.23464 24.1485 7.28736 24.1965 7.34172 24.2436C11.7671 28.0714 18.3505 28.9189 22.0811 29.0713C22.0364 29.0961 21.9917 29.1202 21.947 29.1454C21.7703 29.2455 21.604 29.3461 21.4426 29.4467C21.4327 29.4504 21.4223 29.452 21.4126 29.4563C19.3058 30.341 16.0888 31.3465 12.7174 31.1146ZM28.3807 35.5104C27.3048 36.1742 26.1961 36.7022 25.6388 36.9545C23.6097 35.9875 20.6988 34.1499 20.5386 32.7744C20.3841 31.4472 23.5166 29.8571 25.3055 29.1841C27.2792 29.8048 30.8651 31.3319 31.0272 32.7217C31.1068 33.4073 30.1423 34.4236 28.3807 35.5104ZM37.7212 31.1146C35.5617 31.2636 33.2329 30.93 30.8009 30.1234C30.7972 30.1222 30.7933 30.122 30.7894 30.1208C30.2122 29.7157 29.5591 29.3546 28.9121 29.0439C32.7133 28.8307 38.8828 27.8889 43.0967 24.2437C43.151 24.1967 43.2035 24.1488 43.2569 24.1013C45.5619 24.8348 47.4166 25.8285 48.3809 26.3993C46.8958 27.6848 42.8429 30.7615 37.7212 31.1146Z" fill="white"/>
<path d="M40.062 22.3688C40.2739 22.3688 40.4856 22.2982 40.6462 22.1575C44.411 18.8555 43.9772 13.2771 43.9571 13.0413C43.9233 12.6504 43.5253 12.3562 43.0779 12.3862C42.6261 12.4153 42.287 12.7558 42.3206 13.1467C42.3249 13.1981 42.7251 18.3131 39.4782 21.1608C39.1599 21.4399 39.1636 21.8892 39.4862 22.1646C39.6458 22.3008 39.854 22.3688 40.062 22.3688Z" fill="white"/>
<path d="M11.1105 22.0629C11.2646 22.1754 11.4524 22.2304 11.6395 22.2304C11.8727 22.2304 12.1045 22.1449 12.2668 21.9788C12.5593 21.6793 12.5156 21.2316 12.1694 20.9786C8.65824 18.413 8.49948 13.2989 8.49763 13.2203C8.49025 12.8324 8.12451 12.5225 7.67755 12.5225C7.67304 12.5225 7.66832 12.5225 7.6638 12.5225C7.21069 12.529 6.84946 12.8519 6.85705 13.2437C6.86136 13.4804 7.01459 19.0698 11.1105 22.0629Z" fill="white"/>
</svg>
