<?xml version="1.0" encoding="utf-8"?>
<svg viewBox="0 0 500 500" xmlns="http://www.w3.org/2000/svg">
  <path d="M 186.173 65.829 C 186.079 65.9 183.908 67.512 180.718 68.699 C 185.412 74.431 184.812 82.702 184.784 83.074 C 184.756 83.435 184.451 83.724 184.06 83.755 C 183.698 83.776 176.453 84.24 170.56 81.07 C 169.056 87.308 163.781 92.016 163.553 92.223 C 163.254 92.468 162.845 92.481 162.535 92.253 C 162.268 92.057 156.194 87.504 154.318 81.091 C 148.435 84.24 141.209 83.776 140.847 83.755 C 140.467 83.724 140.162 83.445 140.132 83.074 C 140.104 82.702 139.495 74.431 144.197 68.699 C 142.277 67.992 140.444 67.028 138.743 65.829 C 138.584 65.713 138.48 65.528 138.457 65.323 C 138.428 65.127 138.495 64.931 138.629 64.785 C 138.838 64.559 143.637 59.334 150.433 58.817 C 152.521 58.707 154.611 58.965 156.622 59.582 C 156.46 59.199 156.403 58.807 156.451 58.425 C 156.736 55.637 161.906 53.056 162.487 52.776 C 162.71 52.667 162.966 52.664 163.191 52.766 C 163.248 52.797 164.81 53.51 166.361 54.543 C 168.608 56.04 169.684 57.465 169.542 58.777 C 169.521 58.945 169.483 59.112 169.427 59.272 C 171.085 58.867 172.786 58.714 174.482 58.817 C 181.28 59.334 186.079 64.559 186.288 64.785 C 186.415 64.929 186.478 65.125 186.459 65.323 C 186.436 65.528 186.332 65.713 186.173 65.829 Z M 183.242 82.309 C 183.28 80.099 183.031 72.798 178.366 68.411 C 173.692 64.032 165.896 63.795 163.544 63.836 C 163.506 66.046 163.743 73.336 168.428 77.735 C 173.092 82.124 180.89 82.351 183.242 82.309 Z M 162.459 69.247 C 161.897 72.107 160.716 75.442 158.259 78.097 C 158.574 81.545 161.507 84.416 162.734 85.469 C 163.839 84.333 166.428 81.318 166.504 77.931 C 164.426 75.51 163.022 72.498 162.459 69.247 Z M 162.972 90.683 C 164.334 89.331 168.161 85.191 169.16 80.223 C 168.733 79.945 168.322 79.634 167.923 79.295 C 167.162 83.579 163.486 86.863 163.315 87.018 C 163.019 87.267 162.609 87.283 162.296 87.059 C 162.106 86.915 157.907 83.766 156.889 79.376 C 156.508 79.687 156.107 79.986 155.708 80.254 C 157.013 85.366 161.439 89.404 162.972 90.683 Z M 141.665 82.321 C 144.017 82.351 151.796 82.124 156.48 77.735 C 156.632 77.591 156.781 77.443 156.927 77.291 C 161.163 72.882 161.401 65.973 161.354 63.836 C 159.003 63.795 151.224 64.022 146.54 68.411 C 141.875 72.798 141.627 80.099 141.665 82.309 Z M 150.557 60.284 C 145.693 60.645 141.828 63.826 140.408 65.147 C 141.322 65.747 143.093 66.768 145.283 67.522 L 145.435 67.378 C 149.653 63.422 155.918 62.545 159.468 62.391 L 159.345 62.318 L 158.869 62.009 L 158.831 61.997 C 156.832 61.079 153.766 60.036 150.548 60.284 Z M 165.467 55.74 C 164.438 55.059 163.391 54.511 162.859 54.254 C 160.926 55.255 158.155 57.144 158.002 58.569 C 157.85 59.943 160.84 61.585 162.535 62.277 C 164.42 61.636 167.828 60.056 167.989 58.621 C 168.065 57.919 167.143 56.866 165.467 55.74 Z M 174.359 60.284 C 172.122 60.157 169.885 60.504 167.771 61.305 L 167.761 61.305 C 167.193 61.729 166.595 62.102 165.971 62.421 C 169.589 62.638 175.463 63.608 179.481 67.378 L 179.633 67.522 C 181.822 66.768 183.594 65.736 184.508 65.147 C 183.098 63.826 179.233 60.645 174.359 60.284 Z" style="fill: rgb(6, 0, 0);" transform="matrix(-1, 0, 0, -1, 427.939148, 295.80423)"/>
  <path d="M 145.966 79.091 C 145.766 79.091 145.575 79.153 145.414 79.297 C 145.108 79.562 145.108 80.065 145.414 80.33 C 148.498 83.273 148.118 88.559 148.118 88.612 C 148.079 89.014 148.412 89.365 148.841 89.396 C 149.26 89.427 149.64 89.128 149.669 88.714 C 149.698 88.478 150.107 82.715 146.527 79.307 C 146.366 79.164 146.166 79.08 145.966 79.08 Z M 114.358 88.508 C 114.349 88.911 114.691 89.252 115.119 89.252 L 115.138 89.252 C 115.558 89.252 115.91 88.942 115.919 88.528 C 115.919 88.446 116.071 83.17 119.413 80.516 C 119.736 80.257 119.784 79.793 119.507 79.484 C 119.346 79.318 119.127 79.226 118.908 79.226 C 118.727 79.225 118.55 79.286 118.404 79.401 C 114.5 82.488 114.358 88.26 114.358 88.508 Z" style="fill: rgb(6, 0, 0);" transform="matrix(-1, 0, 0, -1, 397.319336, 305.575897)"/>
</svg>