<svg width="66" height="41" viewBox="0 0 66 41" fill="none" xmlns="http://www.w3.org/2000/svg">
<path d="M64.7581 26.9613C64.6641 26.8903 62.4931 25.2783 59.3031 24.0913C63.9971 18.3593 63.3971 10.0883 63.3691 9.71625C63.3411 9.35525 63.0361 9.06625 62.6451 9.03525C62.2831 9.01425 55.0381 8.55025 49.1451 11.7203C47.6411 5.48225 42.3661 0.774252 42.1381 0.567252C41.8391 0.322252 41.4301 0.309254 41.1201 0.537254C40.8531 0.733254 34.7791 5.28626 32.9031 11.6993C27.0201 8.55026 19.7941 9.01425 19.4321 9.03525C19.0521 9.06625 18.7471 9.34525 18.7171 9.71625C18.6891 10.0883 18.0801 18.3593 22.7821 24.0913C20.8621 24.7983 19.0291 25.7623 17.3281 26.9613C17.1691 27.0773 17.0651 27.2623 17.0421 27.4673C17.0131 27.6633 17.0801 27.8593 17.2141 28.0053C17.4231 28.2313 22.2221 33.4563 29.0181 33.9733C31.1061 34.0833 33.1961 33.8253 35.2071 33.2083C35.0451 33.5913 34.9881 33.9833 35.0361 34.3653C35.3211 37.1533 40.4911 39.7343 41.0721 40.0143C41.2951 40.1233 41.5511 40.1263 41.7761 40.0243C41.8331 39.9933 43.3951 39.2803 44.9461 38.2473C47.1931 36.7503 48.2691 35.3253 48.1271 34.0133C48.1061 33.8453 48.0681 33.6783 48.0121 33.5183C49.6701 33.9233 51.3711 34.0763 53.0671 33.9733C59.8651 33.4563 64.6641 28.2313 64.8731 28.0053C65.0001 27.8613 65.0631 27.6653 65.0441 27.4673C65.0211 27.2623 64.9171 27.0773 64.7581 26.9613ZM61.8271 10.4813C61.8651 12.6913 61.6161 19.9923 56.9511 24.3793C52.2771 28.7583 44.4811 28.9953 42.1291 28.9543C42.0911 26.7443 42.3281 19.4543 47.0131 15.0553C51.6771 10.6663 59.4751 10.4393 61.8271 10.4813ZM41.0441 23.5433C40.4821 20.6833 39.3011 17.3483 36.8441 14.6933C37.1591 11.2453 40.0921 8.37427 41.3191 7.32127C42.4241 8.45727 45.0131 11.4723 45.0891 14.8593C43.0111 17.2803 41.6071 20.2923 41.0441 23.5433ZM41.5571 2.10726C42.9191 3.45926 46.7461 7.59925 47.7451 12.5673C47.3181 12.8453 46.9071 13.1563 46.5081 13.4953C45.7471 9.21126 42.0711 5.92725 41.9001 5.77225C41.6041 5.52325 41.1941 5.50725 40.8811 5.73125C40.6911 5.87525 36.4921 9.02425 35.4741 13.4143C35.0931 13.1033 34.6921 12.8043 34.2931 12.5363C35.5981 7.42426 40.0241 3.38626 41.5571 2.10726ZM20.2501 10.4693C22.6021 10.4393 30.3811 10.6663 35.0651 15.0553C35.2171 15.1993 35.3661 15.3473 35.5121 15.4993C39.7481 19.9083 39.9861 26.8173 39.9391 28.9543C37.5881 28.9953 29.8091 28.7683 25.1251 24.3793C20.4601 19.9923 20.2121 12.6913 20.2501 10.4813V10.4693ZM29.1421 32.5063C24.2781 32.1453 20.4131 28.9643 18.9931 27.6433C19.9071 27.0433 21.6781 26.0223 23.8681 25.2683L24.0201 25.4123C28.2381 29.3683 34.5031 30.2453 38.0531 30.3993L37.9301 30.4723L37.4541 30.7813L37.4161 30.7933C35.4171 31.7113 32.3511 32.7543 29.1331 32.5063H29.1421ZM44.0521 37.0503C43.0231 37.7313 41.9761 38.2793 41.4441 38.5363C39.5111 37.5353 36.7401 35.6463 36.5871 34.2213C36.4351 32.8473 39.4251 31.2053 41.1201 30.5133C43.0051 31.1543 46.4131 32.7343 46.5741 34.1693C46.6501 34.8713 45.7281 35.9243 44.0521 37.0503ZM52.9441 32.5063C50.7071 32.6333 48.4701 32.2863 46.3561 31.4853H46.3461C45.7781 31.0613 45.1801 30.6883 44.5561 30.3693C48.1741 30.1523 54.0481 29.1823 58.0661 25.4123L58.2181 25.2683C60.4071 26.0223 62.1791 27.0543 63.0931 27.6433C61.6831 28.9643 57.8181 32.1453 52.9441 32.5063Z" fill="#060000"/>
<path d="M55.171 23.4823C55.371 23.4823 55.571 23.3983 55.732 23.2553C59.312 19.8473 58.903 14.0843 58.874 13.8483C58.845 13.4343 58.465 13.1353 58.046 13.1663C57.617 13.1973 57.284 13.5483 57.323 13.9503C57.323 14.0033 57.703 19.2893 54.619 22.2323C54.313 22.4973 54.313 23.0003 54.619 23.2653C54.78 23.4093 54.971 23.4713 55.171 23.4713V23.4823ZM27.609 23.1613C27.755 23.2763 27.932 23.3373 28.113 23.3363C28.332 23.3363 28.551 23.2443 28.712 23.0783C28.989 22.7693 28.941 22.3053 28.618 22.0463C25.276 19.3923 25.124 14.1163 25.124 14.0343C25.115 13.6203 24.763 13.3103 24.343 13.3103H24.324C23.896 13.3103 23.554 13.6513 23.563 14.0543C23.563 14.3023 23.705 20.0743 27.609 23.1613Z" fill="#060000"/>
<path d="M1.33301 29.8845C0.448008 29.4395 0 29.1205 0 28.9345C0 28.7475 0.105008 28.4795 0.305008 28.1285C0.514008 27.7565 0.781004 27.4885 1.076 27.3225L14.118 20.3745C14.234 20.3015 14.31 20.2705 14.385 20.2705C14.576 20.2705 14.671 20.3745 14.671 20.6105C14.671 20.8685 14.576 21.1995 14.385 21.6025C14.205 21.9735 13.967 22.2435 13.672 22.4085L2.57001 28.5105C2.52301 28.5415 2.504 28.5725 2.504 28.6135C2.532 28.6445 2.564 28.6675 2.599 28.6865L13.929 34.7995C14.186 34.9445 14.385 35.2025 14.509 35.5735C14.643 35.9255 14.7 36.2255 14.7 36.4835C14.7 36.7415 14.586 36.8755 14.347 36.8755C14.281 36.8755 14.186 36.8445 14.062 36.8035L1.33301 29.8845Z" fill="#060000"/>
</svg>
