<svg width="47" height="32" viewBox="0 0 47 32" fill="none" xmlns="http://www.w3.org/2000/svg">
<path d="M0.67622 17.9617C0.77022 17.8907 2.94122 16.2787 6.13122 15.0917C1.43722 9.35968 2.03723 1.08868 2.06523 0.716679C2.09323 0.355679 2.39823 0.0666789 2.78923 0.0356789C3.13823 0.0156789 9.90023 -0.417324 15.6692 2.40268C16.2492 2.84368 17.1082 3.30067 17.7022 3.50467C17.6972 3.52567 17.6932 3.54668 17.6892 3.56768C17.8192 3.65168 17.9472 3.73968 18.0742 3.82968C18.3182 4.07768 18.6852 4.30267 18.8852 4.46067C18.8992 4.47267 18.9122 4.48368 18.9262 4.49568V4.49468C18.9512 4.51668 18.9732 4.53668 18.9892 4.55468C19.0702 4.64468 19.0042 4.64567 19.1022 4.74167C19.2662 4.90267 19.8142 5.39068 20.3472 5.77768C20.3462 5.80468 20.3462 5.83168 20.3452 5.85968C22.4232 8.28068 23.8272 11.2927 24.3902 14.5437C24.9312 11.7907 26.0462 8.59668 28.3202 5.99368C28.3552 5.97268 28.3872 5.94968 28.4172 5.92368C28.5192 5.83368 28.5882 5.71467 28.6562 5.58567C28.6762 5.57467 28.6962 5.56368 28.7152 5.55268C28.9772 5.39868 29.2202 5.17267 29.4222 4.92067C29.7912 4.72267 30.1252 4.49168 30.3382 4.27468C30.4512 4.15868 30.5642 4.01968 30.6672 3.86868C30.7582 3.80168 30.8502 3.73668 30.9422 3.67268C30.9552 3.66768 30.9682 3.66167 30.9812 3.65667C31.3372 3.50967 31.5752 3.34267 31.8792 3.05867C31.9202 3.01967 31.9652 2.97668 32.0122 2.93068C32.2952 2.83668 32.5632 2.71867 32.7232 2.59867L32.7242 2.59768C38.5712 -0.439325 45.6442 0.0146789 46.0022 0.0356789C46.3822 0.0666789 46.6872 0.345679 46.7172 0.716679C46.7452 1.08868 47.3542 9.35968 42.6522 15.0917C42.6712 15.0987 42.6902 15.1057 42.7082 15.1127C42.6352 15.2207 42.5632 15.3287 42.4982 15.4327C42.4472 15.4937 42.3962 15.5547 42.3462 15.6157C42.0782 15.7827 41.7612 16.0337 41.5702 16.2317C41.5092 16.2947 41.4492 16.3627 41.3912 16.4347C37.1732 20.3717 30.9252 21.2457 27.3812 21.3997L27.5042 21.4727L27.9802 21.7817L28.0182 21.7937C28.2902 21.9187 28.5822 22.0467 28.8922 22.1727C28.9992 22.2867 29.2112 22.4487 29.4512 22.6117C29.4752 22.6457 29.5002 22.6777 29.5232 22.7067C29.6082 22.8137 29.7222 22.9387 29.8492 23.0677C29.8702 23.1747 29.9092 23.2827 29.9792 23.3767C30.0012 23.4067 30.0302 23.4387 30.0662 23.4737C30.1332 23.7177 30.2132 23.9767 30.3032 24.2317C30.2782 24.2247 30.2522 24.2167 30.2272 24.2087C30.3892 24.5917 30.4462 24.9837 30.3982 25.3657C30.1132 28.1537 24.9432 30.7347 24.3622 31.0147C24.1392 31.1237 23.8832 31.1267 23.6582 31.0247C23.6012 30.9937 22.0392 30.2807 20.4882 29.2477C18.2412 27.7507 17.1652 26.3257 17.3072 25.0137C17.3282 24.8457 17.3662 24.6787 17.4222 24.5187C15.7642 24.9237 14.0632 25.0767 12.3672 24.9737C5.56923 24.4567 0.77023 19.2317 0.56123 19.0057C0.43423 18.8617 0.371224 18.6657 0.390224 18.4677C0.413224 18.2627 0.51722 18.0777 0.67622 17.9617ZM3.60722 1.48168C3.56922 3.69168 3.81823 10.9927 8.48323 15.3797C13.1572 19.7587 20.9532 19.9957 23.3052 19.9547C23.3432 17.7447 23.1062 10.4547 18.4212 6.05568C13.7572 1.66668 5.95922 1.43968 3.60722 1.48168ZM45.1842 1.46968C42.8322 1.43968 35.0532 1.66668 30.3692 6.05568C30.2172 6.19968 30.0682 6.34768 29.9222 6.49968C25.6862 10.9087 25.4482 17.8177 25.4952 19.9547C27.8462 19.9957 35.6252 19.7687 40.3092 15.3797C44.9742 10.9927 45.2222 3.69168 45.1842 1.48168V1.46968ZM21.3822 28.0507C22.4112 28.7317 23.4582 29.2797 23.9902 29.5367C25.9232 28.5357 28.6942 26.6467 28.8472 25.2217C28.9992 23.8477 26.0092 22.2057 24.3142 21.5137C22.4292 22.1547 19.0212 23.7347 18.8602 25.1697C18.7842 25.8717 19.7062 26.9247 21.3822 28.0507ZM12.4902 23.5067C14.7272 23.6337 16.9642 23.2867 19.0782 22.4857H19.0882C19.6562 22.0617 20.2542 21.6887 20.8782 21.3697C17.2602 21.1527 11.3862 20.1827 7.36822 16.4127L7.21623 16.2687C5.02723 17.0227 3.25523 18.0547 2.34123 18.6437C3.75123 19.9647 7.61623 23.1457 12.4902 23.5067Z" fill="#060000"/>
</svg>
