<svg width="49" height="32" viewBox="0 0 49 32" fill="none" xmlns="http://www.w3.org/2000/svg">
<path d="M0.676125 17.9614C0.770126 17.8904 2.94113 16.2784 6.13113 15.0914C1.43713 9.35943 2.03713 1.08843 2.06513 0.716434C2.09313 0.355434 2.39813 0.0664349 2.78913 0.0354347C3.13813 0.0154343 9.90014 -0.417568 15.6691 2.40243C16.2491 2.84343 17.1081 3.30043 17.7021 3.50443C17.6971 3.52543 17.6931 3.54643 17.6891 3.56743C17.8191 3.65143 17.9471 3.73943 18.0741 3.82943C18.3181 4.07743 18.6851 4.30243 18.8851 4.46043C18.8991 4.47243 18.9121 4.48343 18.9261 4.49543V4.49443C18.9511 4.51643 18.9731 4.53643 18.9891 4.55443C19.0701 4.64443 19.0041 4.64543 19.1021 4.74143C19.2661 4.90243 19.8141 5.39043 20.3471 5.77743C20.3461 5.80443 20.3461 5.83143 20.3451 5.85943C22.4231 8.28043 23.8271 11.2924 24.3901 14.5434C24.9311 11.7904 26.0461 8.59644 28.3201 5.99343C28.3551 5.97243 28.3871 5.94943 28.4171 5.92344C28.5191 5.83344 28.5881 5.71443 28.6561 5.58543C28.6761 5.57443 28.6961 5.56343 28.7151 5.55243C28.9771 5.39843 29.2201 5.17243 29.4221 4.92043C29.7911 4.72243 30.1251 4.49143 30.3381 4.27443C30.4511 4.15843 30.5641 4.01943 30.6671 3.86843C30.7581 3.80144 30.8501 3.73643 30.9421 3.67244C30.9551 3.66744 30.9681 3.66143 30.9811 3.65643C31.3371 3.50943 31.5751 3.34243 31.8791 3.05843C31.9201 3.01943 31.9651 2.97643 32.0121 2.93043C32.2951 2.83643 32.5631 2.71843 32.7231 2.59843L32.7241 2.59743C38.5711 -0.439569 45.6441 0.0144348 46.0021 0.0354347C46.3821 0.0664349 46.6871 0.345434 46.7171 0.716434C46.7451 1.08843 47.3541 9.35943 42.6521 15.0914C44.5721 15.7984 46.4051 16.7624 48.1061 17.9614C48.2651 18.0774 48.3691 18.2624 48.3921 18.4674C48.4211 18.6634 48.3541 18.8594 48.2201 19.0054C48.0111 19.2314 43.2121 24.4564 36.4161 24.9734C34.3281 25.0834 32.2381 24.8254 30.2271 24.2084C30.3891 24.5914 30.4461 24.9834 30.3981 25.3654C30.1131 28.1534 24.9431 30.7344 24.3621 31.0144C24.1391 31.1234 23.8831 31.1264 23.6581 31.0244C23.6011 30.9934 22.0391 30.2804 20.4881 29.2474C18.2411 27.7504 17.1651 26.3254 17.3071 25.0134C17.3281 24.8454 17.3661 24.6784 17.4221 24.5184C15.7641 24.9234 14.0631 25.0764 12.3671 24.9734C5.56913 24.4564 0.770134 19.2314 0.561134 19.0054C0.434135 18.8614 0.371128 18.6654 0.390129 18.4674C0.413128 18.2624 0.517124 18.0774 0.676125 17.9614ZM3.60712 1.48143C3.56913 3.69143 3.81813 10.9924 8.48313 15.3794C13.1571 19.7584 20.9531 19.9954 23.3051 19.9544C23.3431 17.7444 23.1061 10.4544 18.4211 6.05543C13.7571 1.66643 5.95913 1.43943 3.60712 1.48143ZM45.1841 1.46943C42.8321 1.43943 35.0531 1.66643 30.3691 6.05543C30.2171 6.19943 30.0681 6.34743 29.9221 6.49943C25.6861 10.9084 25.4481 17.8174 25.4951 19.9544C27.8461 19.9954 35.6251 19.7684 40.3091 15.3794C44.9741 10.9924 45.2221 3.69143 45.1841 1.48143V1.46943ZM36.2921 23.5064C41.1561 23.1454 45.0211 19.9644 46.4411 18.6434C45.5271 18.0434 43.7561 17.0224 41.5661 16.2684L41.4141 16.4124C37.1961 20.3684 30.9311 21.2454 27.3811 21.3994L27.5041 21.4724L27.9801 21.7814L28.0181 21.7934C30.0171 22.7114 33.0831 23.7544 36.3011 23.5064H36.2921ZM21.3821 28.0504C22.4111 28.7314 23.4581 29.2794 23.9901 29.5364C25.9231 28.5354 28.6941 26.6464 28.8471 25.2214C28.9991 23.8474 26.0091 22.2054 24.3141 21.5134C22.4291 22.1544 19.0211 23.7344 18.8601 25.1694C18.7841 25.8714 19.7061 26.9244 21.3821 28.0504ZM12.4901 23.5064C14.7271 23.6334 16.9641 23.2864 19.0781 22.4854H19.0881C19.6561 22.0614 20.2541 21.6884 20.8781 21.3694C17.2601 21.1524 11.3861 20.1824 7.36813 16.4124L7.21613 16.2684C5.02713 17.0224 3.25513 18.0544 2.34113 18.6434C3.75113 19.9644 7.61613 23.1454 12.4901 23.5064Z" fill="#060000"/>
</svg>
