<?xml version="1.0" encoding="utf-8"?>
<svg viewBox="0 0 500 500" xmlns="http://www.w3.org/2000/svg">
  <path d="M 188.102 236.532 C 188.158 236.692 188.196 236.859 188.217 237.027 C 188.359 238.339 187.283 239.764 185.036 241.261 C 183.485 242.294 181.923 243.007 181.866 243.038 C 181.641 243.14 181.385 243.137 181.162 243.028 C 180.591 242.753 175.59 240.256 175.145 237.524 C 175.167 237.457 175.187 237.392 175.204 237.33 C 175.198 237.249 175.196 237.167 175.2 237.085 C 175.2 237.064 175.2 237.043 175.201 237.023 C 175.206 236.833 175.227 236.652 175.281 236.466 C 175.272 236.427 175.26 236.39 175.246 236.353 C 175.262 236.309 175.279 236.266 175.297 236.222 C 175.292 236.224 175.287 236.225 175.282 236.227 C 175.363 235.997 175.441 235.807 175.515 235.709 C 175.597 235.602 175.659 235.573 175.726 235.543 C 175.981 235.136 176.371 234.6 176.782 234.175 C 176.783 234.157 176.784 234.14 176.784 234.123 C 176.812 234.111 176.84 234.1 176.868 234.088 C 176.919 234.038 176.97 233.99 177.021 233.944 C 177.222 233.763 177.463 233.569 177.711 233.391 C 174.154 233.188 168.33 232.253 164.283 228.586 C 164.283 228.584 164.282 228.581 164.282 228.579 C 163.953 228.343 163.517 227.896 163.398 227.703 C 163.398 227.702 163.397 227.701 163.397 227.701 C 163.197 227.444 162.985 227.103 162.88 227.002 C 162.818 226.942 162.79 226.962 162.75 226.924 C 162.703 226.88 162.696 226.8 162.62 226.742 C 162.601 226.727 162.576 226.711 162.547 226.693 C 158.199 220.985 158.78 213.093 158.807 212.73 C 158.837 212.359 159.142 212.08 159.522 212.049 C 159.881 212.028 166.976 211.573 172.828 214.626 C 172.884 214.672 172.941 214.72 173 214.767 C 173.319 214.929 173.646 215.104 173.922 215.263 C 174.507 215.6 175.399 216.134 176.046 216.585 C 176.446 216.936 176.905 217.323 177.279 217.61 C 177.638 218.109 178.028 218.731 178.254 219.139 C 178.427 219.453 178.601 219.786 178.71 220.068 C 178.928 220.425 179.13 220.787 179.316 221.152 C 179.742 221.796 180.507 223.77 180.918 225.272 C 181.028 225.674 181.144 226.161 181.256 226.683 C 181.307 226.794 181.357 226.909 181.405 227.025 C 181.652 229.076 182.089 231.88 182.317 232.342 C 182.413 232.539 182.489 232.483 182.602 232.498 C 182.626 232.501 182.654 232.502 182.683 232.5 C 182.703 232.516 182.723 232.532 182.743 232.548 C 182.813 232.558 182.884 232.571 182.956 232.587 C 183.509 232.711 184.326 232.998 184.977 233.364 C 185.668 233.753 186.636 234.536 186.973 234.894 C 186.987 234.909 187 234.924 187.012 234.938 C 187.193 235.088 187.355 235.241 187.485 235.397 C 187.552 235.478 187.616 235.556 187.676 235.633 C 187.771 235.809 187.916 236.02 188.049 236.242 C 188.072 236.342 188.096 236.441 188.121 236.537 C 188.115 236.535 188.108 236.534 188.102 236.532 Z M 160.34 213.495 C 160.302 215.705 160.55 223.006 165.215 227.393 C 169.899 231.782 177.678 232.009 180.029 231.968 C 180.076 229.831 179.838 222.922 175.602 218.513 C 175.456 218.361 175.307 218.213 175.155 218.069 C 170.471 213.68 162.692 213.453 160.34 213.483 Z M 186.664 237.183 C 186.503 235.748 183.095 234.168 181.21 233.527 C 179.515 234.219 176.525 235.861 176.677 237.235 C 176.83 238.66 179.601 240.549 181.534 241.55 C 182.066 241.293 183.113 240.745 184.142 240.064 C 185.818 238.938 186.74 237.885 186.664 237.183 Z" style="fill: rgb(6, 0, 0);"/>
</svg>