<svg width="49" height="41" viewBox="0 0 49 41" fill="none" xmlns="http://www.w3.org/2000/svg">
<path d="M0.676125 26.9614C0.770126 26.8904 2.94113 25.2784 6.13113 24.0914C1.43713 18.3594 2.03713 10.0884 2.06513 9.71643C2.09313 9.35543 2.39813 9.06643 2.78913 9.03543C3.15113 9.01443 10.3961 8.55043 16.2891 11.7204C17.7931 5.48243 23.0681 0.774433 23.2961 0.567432C23.5951 0.322433 24.0041 0.309433 24.3141 0.537434C24.5811 0.733433 30.6551 5.28643 32.5311 11.6994C38.4141 8.55043 45.6401 9.01443 46.0021 9.03543C46.3821 9.06643 46.6871 9.34543 46.7171 9.71643C46.7451 10.0884 47.3541 18.3594 42.6521 24.0914C44.5721 24.7984 46.4051 25.7624 48.1061 26.9614C48.2651 27.0774 48.3691 27.2624 48.3921 27.4674C48.4211 27.6634 48.3541 27.8594 48.2201 28.0054C48.0111 28.2314 43.2121 33.4564 36.4161 33.9734C34.3281 34.0834 32.2381 33.8254 30.2271 33.2084C30.3891 33.5914 30.4461 33.9834 30.3981 34.3654C30.1131 37.1534 24.9431 39.7344 24.3621 40.0144C24.1391 40.1234 23.8831 40.1264 23.6581 40.0244C23.6011 39.9934 22.0391 39.2804 20.4881 38.2474C18.2411 36.7504 17.1651 35.3254 17.3071 34.0134C17.3281 33.8454 17.3661 33.6784 17.4221 33.5184C15.7641 33.9234 14.0631 34.0764 12.3671 33.9734C5.56913 33.4564 0.770134 28.2314 0.561134 28.0054C0.434135 27.8614 0.371128 27.6654 0.390129 27.4674C0.413128 27.2624 0.517124 27.0774 0.676125 26.9614ZM3.60712 10.4814C3.56913 12.6914 3.81813 19.9924 8.48313 24.3794C13.1571 28.7584 20.9531 28.9954 23.3051 28.9544C23.3431 26.7444 23.1061 19.4544 18.4211 15.0554C13.7571 10.6664 5.95913 10.4394 3.60712 10.4814ZM24.3901 23.5434C24.9521 20.6834 26.1331 17.3484 28.5901 14.6934C28.2751 11.2454 25.3421 8.37443 24.1151 7.32143C23.0101 8.45743 20.4211 11.4724 20.3451 14.8594C22.4231 17.2804 23.8271 20.2924 24.3901 23.5434ZM23.8771 2.10743C22.5151 3.45943 18.6881 7.59943 17.6891 12.5674C18.1161 12.8454 18.5271 13.1564 18.9261 13.4954C19.6871 9.21143 23.3631 5.92743 23.5341 5.77243C23.8301 5.52343 24.2401 5.50743 24.5531 5.73143C24.7431 5.87543 28.9421 9.02443 29.9601 13.4144C30.3411 13.1034 30.7421 12.8044 31.1411 12.5364C29.8361 7.42443 25.4101 3.38643 23.8771 2.10743ZM45.1841 10.4694C42.8321 10.4394 35.0531 10.6664 30.3691 15.0554C30.2171 15.1994 30.0681 15.3474 29.9221 15.4994C25.6861 19.9084 25.4481 26.8174 25.4951 28.9544C27.8461 28.9954 35.6251 28.7684 40.3091 24.3794C44.9741 19.9924 45.2221 12.6914 45.1841 10.4814V10.4694ZM36.2921 32.5064C41.1561 32.1454 45.0211 28.9644 46.4411 27.6434C45.5271 27.0434 43.7561 26.0224 41.5661 25.2684L41.4141 25.4124C37.1961 29.3684 30.9311 30.2454 27.3811 30.3994L27.5041 30.4724L27.9801 30.7814L28.0181 30.7934C30.0171 31.7114 33.0831 32.7544 36.3011 32.5064H36.2921ZM21.3821 37.0504C22.4111 37.7314 23.4581 38.2794 23.9901 38.5364C25.9231 37.5354 28.6941 35.6464 28.8471 34.2214C28.9991 32.8474 26.0091 31.2054 24.3141 30.5134C22.4291 31.1544 19.0211 32.7344 18.8601 34.1694C18.7841 34.8714 19.7061 35.9244 21.3821 37.0504ZM12.4901 32.5064C14.7271 32.6334 16.9641 32.2864 19.0781 31.4854H19.0881C19.6561 31.0614 20.2541 30.6884 20.8781 30.3694C17.2601 30.1524 11.3861 29.1824 7.36813 25.4124L7.21613 25.2684C5.02713 26.0224 3.25513 27.0544 2.34113 27.6434C3.75113 28.9644 7.61613 32.1454 12.4901 32.5064Z" fill="#060000"/>
</svg>
