<svg width="49" height="36" viewBox="0 0 49 36" fill="none" xmlns="http://www.w3.org/2000/svg">
<path d="M0.676125 21.9614C0.770126 21.8904 2.94113 20.2784 6.13113 19.0914C1.43713 13.3594 2.03713 5.08843 2.06513 4.71643C2.09313 4.35543 2.39813 4.06643 2.78913 4.03543C3.15113 4.01443 10.3961 3.55043 16.2891 6.72043C16.2911 6.71243 16.2931 6.70443 16.2951 6.69643C16.4951 6.82843 16.7591 6.98544 17.0071 7.11744C17.2731 7.34244 17.7551 7.67043 18.0741 7.82943C18.3651 8.03743 18.6481 8.25943 18.9261 8.49543C19.6871 4.21143 23.3631 0.927433 23.5341 0.772434C23.8301 0.523434 24.2401 0.507435 24.5531 0.731434C24.7431 0.875435 28.9421 4.02443 29.9601 8.41443C30.2301 8.19343 30.5111 7.97943 30.7931 7.77743C30.9691 7.71243 31.1571 7.61843 31.2981 7.51043C31.4221 7.41543 31.5821 7.25843 31.7361 7.08443C31.8461 7.02643 31.9581 6.96643 32.0681 6.90643C32.4101 6.78543 32.7921 6.61343 32.9871 6.47743C33.0061 6.46443 33.0251 6.45043 33.0441 6.43543C38.8261 3.57643 45.6501 4.01543 46.0021 4.03543C46.3821 4.06643 46.6871 4.34543 46.7171 4.71643C46.7451 5.08843 47.3541 13.3594 42.6521 19.0914C44.5721 19.7984 46.4051 20.7624 48.1061 21.9614C48.2651 22.0774 48.3691 22.2624 48.3921 22.4674C48.4211 22.6634 48.3541 22.8594 48.2201 23.0054C48.0111 23.2314 43.2121 28.4564 36.4161 28.9734C34.3281 29.0834 32.2381 28.8254 30.2271 28.2084C30.3891 28.5914 30.4461 28.9834 30.3981 29.3654C30.1131 32.1534 24.9431 34.7344 24.3621 35.0144C24.1391 35.1234 23.8831 35.1264 23.6581 35.0244C23.6011 34.9934 22.0391 34.2804 20.4881 33.2474C18.2411 31.7504 17.1651 30.3254 17.3071 29.0134C17.3281 28.8454 17.3661 28.6784 17.4221 28.5184C15.7641 28.9234 14.0631 29.0764 12.3671 28.9734C5.56913 28.4564 0.770134 23.2314 0.561134 23.0054C0.434135 22.8614 0.371128 22.6654 0.390129 22.4674C0.413128 22.2624 0.517124 22.0774 0.676125 21.9614ZM3.60712 5.48143C3.56913 7.69143 3.81813 14.9924 8.48313 19.3794C13.1571 23.7584 20.9531 23.9954 23.3051 23.9544C23.3431 21.7444 23.1061 14.4544 18.4211 10.0554C13.7571 5.66643 5.95913 5.43943 3.60712 5.48143ZM24.3901 18.5434C24.9521 15.6834 26.1331 12.3484 28.5901 9.69343C28.2751 6.24543 25.3421 3.37443 24.1151 2.32143C23.0101 3.45743 20.4211 6.47243 20.3451 9.85943C22.4231 12.2804 23.8271 15.2924 24.3901 18.5434ZM45.1841 5.46943C42.8321 5.43943 35.0531 5.66643 30.3691 10.0554C30.2171 10.1994 30.0681 10.3474 29.9221 10.4994C25.6861 14.9084 25.4481 21.8174 25.4951 23.9544C27.8461 23.9954 35.6251 23.7684 40.3091 19.3794C44.9741 14.9924 45.2221 7.69143 45.1841 5.48143V5.46943ZM36.2921 27.5064C41.1561 27.1454 45.0211 23.9644 46.4411 22.6434C45.5271 22.0434 43.7561 21.0224 41.5661 20.2684L41.4141 20.4124C37.1961 24.3684 30.9311 25.2454 27.3811 25.3994L27.5041 25.4724L27.9801 25.7814L28.0181 25.7934C30.0171 26.7114 33.0831 27.7544 36.3011 27.5064H36.2921ZM21.3821 32.0504C22.4111 32.7314 23.4581 33.2794 23.9901 33.5364C25.9231 32.5354 28.6941 30.6464 28.8471 29.2214C28.9991 27.8474 26.0091 26.2054 24.3141 25.5134C22.4291 26.1544 19.0211 27.7344 18.8601 29.1694C18.7841 29.8714 19.7061 30.9244 21.3821 32.0504ZM12.4901 27.5064C14.7271 27.6334 16.9641 27.2864 19.0781 26.4854H19.0881C19.6561 26.0614 20.2541 25.6884 20.8781 25.3694C17.2601 25.1524 11.3861 24.1824 7.36813 20.4124L7.21613 20.2684C5.02713 21.0224 3.25513 22.0544 2.34113 22.6434C3.75113 23.9644 7.61613 27.1454 12.4901 27.5064Z" fill="#060000"/>
</svg>
