<svg width="90" height="46" viewBox="0 0 90 46" fill="none" xmlns="http://www.w3.org/2000/svg">
<path d="M22.688 4.06151C23.117 4.06151 23.469 3.73051 23.469 3.32851V1.12952C23.469 0.716517 23.117 0.395508 22.688 0.395508C22.251 0.395508 21.908 0.726515 21.908 1.11852V3.32851C21.908 3.73051 22.251 4.05051 22.688 4.05051V4.06151ZM22.688 5.52852C22.251 5.52852 21.908 5.84751 21.908 6.25151V8.44951C21.908 8.86351 22.251 9.18352 22.688 9.18352C23.117 9.18352 23.469 8.86351 23.469 8.46051V6.26151C23.469 5.84751 23.117 5.52852 22.688 5.52852ZM18.776 5.52852H21.127C21.556 5.52852 21.908 5.19751 21.908 4.79451C21.908 4.38151 21.556 4.06151 21.127 4.06151H18.776C18.347 4.06151 17.994 4.38152 17.994 4.78452C17.994 5.19752 18.347 5.52852 18.776 5.52852ZM24.249 5.52852H26.592C27.02 5.52852 27.372 5.19751 27.372 4.79451C27.372 4.38151 27.02 4.06151 26.592 4.06151H24.249C23.812 4.06151 23.469 4.38152 23.469 4.78452C23.469 5.19752 23.812 5.52852 24.249 5.52852ZM31.276 10.6495C31.714 10.6495 32.056 10.3295 32.056 9.92751C32.056 9.51351 31.714 9.18352 31.276 9.18352C30.847 9.18352 30.495 9.5135 30.495 9.9165C30.495 10.3295 30.847 10.6495 31.276 10.6495ZM56.276 10.6495C56.705 10.6495 57.057 10.3295 57.057 9.92751C57.057 9.51351 56.705 9.18352 56.276 9.18352C55.848 9.18352 55.496 9.5135 55.496 9.9165C55.496 10.3295 55.848 10.6495 56.276 10.6495ZM50.413 6.99451C51.925 6.99451 53.154 5.83752 53.154 4.42252C53.154 3.00752 51.916 1.87251 50.403 1.87251C48.898 1.87251 47.67 3.01852 47.67 4.43352C47.67 5.84752 48.908 7.00452 50.403 7.00452L50.413 6.99451ZM50.413 3.32851C51.06 3.32851 51.592 3.81352 51.592 4.42252C51.592 5.03252 51.06 5.52852 50.413 5.52852C49.774 5.52852 49.241 5.03252 49.241 4.42252C49.241 3.81352 49.774 3.32851 50.413 3.32851Z" fill="#060000"/>
<path d="M64.7581 31.9613C64.6641 31.8903 62.4931 30.2783 59.3031 29.0913C63.9971 23.3593 63.3971 15.0883 63.3691 14.7163C63.3411 14.3553 63.0361 14.0663 62.6451 14.0353C62.2831 14.0143 55.0381 13.5503 49.1451 16.7203C47.6411 10.4823 42.3661 5.77425 42.1381 5.56725C41.8391 5.32225 41.4301 5.30925 41.1201 5.53725C40.8531 5.73325 34.7791 10.2863 32.9031 16.6993C27.0201 13.5503 19.7941 14.0143 19.4321 14.0353C19.0521 14.0663 18.7471 14.3453 18.7171 14.7163C18.6891 15.0883 18.0801 23.3593 22.7821 29.0913C20.8621 29.7983 19.0291 30.7623 17.3281 31.9613C17.1691 32.0773 17.0651 32.2623 17.0421 32.4673C17.0131 32.6633 17.0801 32.8593 17.2141 33.0053C17.4231 33.2313 22.2221 38.4563 29.0181 38.9733C31.1061 39.0833 33.1961 38.8253 35.2071 38.2083C35.0451 38.5913 34.9881 38.9833 35.0361 39.3653C35.3211 42.1533 40.4911 44.7343 41.0721 45.0143C41.2951 45.1233 41.5511 45.1263 41.7761 45.0243C41.8331 44.9933 43.3951 44.2803 44.9461 43.2473C47.1931 41.7503 48.2691 40.3253 48.1271 39.0133C48.1061 38.8453 48.0681 38.6783 48.0121 38.5183C49.6701 38.9233 51.3711 39.0763 53.0671 38.9733C59.8651 38.4563 64.6641 33.2313 64.8731 33.0053C65.0001 32.8613 65.0631 32.6653 65.0441 32.4673C65.0211 32.2623 64.9171 32.0773 64.7581 31.9613ZM61.8271 15.4813C61.8651 17.6913 61.6161 24.9923 56.9511 29.3793C52.2771 33.7583 44.4811 33.9953 42.1291 33.9543C42.0911 31.7443 42.3281 24.4543 47.0131 20.0553C51.6771 15.6663 59.4751 15.4393 61.8271 15.4813ZM41.0441 28.5433C40.4821 25.6833 39.3011 22.3483 36.8441 19.6933C37.1591 16.2453 40.0921 13.3743 41.3191 12.3213C42.4241 13.4573 45.0131 16.4723 45.0891 19.8593C43.0111 22.2803 41.6071 25.2923 41.0441 28.5433ZM41.5571 7.10726C42.9191 8.45926 46.7461 12.5993 47.7451 17.5673C47.3181 17.8453 46.9071 18.1563 46.5081 18.4953C45.7471 14.2113 42.0711 10.9273 41.9001 10.7723C41.6041 10.5233 41.1941 10.5073 40.8811 10.7313C40.6911 10.8753 36.4921 14.0243 35.4741 18.4143C35.0931 18.1033 34.6921 17.8043 34.2931 17.5363C35.5981 12.4243 40.0241 8.38626 41.5571 7.10726ZM20.2501 15.4693C22.6021 15.4393 30.3811 15.6663 35.0651 20.0553C35.2171 20.1993 35.3661 20.3473 35.5121 20.4993C39.7481 24.9083 39.9861 31.8173 39.9391 33.9543C37.5881 33.9953 29.8091 33.7683 25.1251 29.3793C20.4601 24.9923 20.2121 17.6913 20.2501 15.4813V15.4693ZM29.1421 37.5063C24.2781 37.1453 20.4131 33.9643 18.9931 32.6433C19.9071 32.0433 21.6781 31.0223 23.8681 30.2683L24.0201 30.4123C28.2381 34.3683 34.5031 35.2453 38.0531 35.3993L37.9301 35.4723L37.4541 35.7813L37.4161 35.7933C35.4171 36.7113 32.3511 37.7543 29.1331 37.5063H29.1421ZM44.0521 42.0503C43.0231 42.7313 41.9761 43.2793 41.4441 43.5363C39.5111 42.5353 36.7401 40.6463 36.5871 39.2213C36.4351 37.8473 39.4251 36.2053 41.1201 35.5133C43.0051 36.1543 46.4131 37.7343 46.5741 39.1693C46.6501 39.8713 45.7281 40.9243 44.0521 42.0503ZM52.9441 37.5063C50.7071 37.6333 48.4701 37.2863 46.3561 36.4853H46.3461C45.7781 36.0613 45.1801 35.6883 44.5561 35.3693C48.1741 35.1523 54.0481 34.1823 58.0661 30.4123L58.2181 30.2683C60.4071 31.0223 62.1791 32.0543 63.0931 32.6433C61.6831 33.9643 57.8181 37.1453 52.9441 37.5063Z" fill="#060000"/>
<path d="M55.171 28.4823C55.371 28.4823 55.571 28.3983 55.732 28.2553C59.312 24.8473 58.903 19.0843 58.874 18.8483C58.845 18.4343 58.465 18.1353 58.046 18.1663C57.617 18.1973 57.284 18.5483 57.323 18.9503C57.323 19.0033 57.703 24.2893 54.619 27.2323C54.313 27.4973 54.313 28.0003 54.619 28.2653C54.78 28.4093 54.971 28.4713 55.171 28.4713V28.4823ZM27.609 28.1613C27.755 28.2763 27.932 28.3373 28.113 28.3363C28.332 28.3363 28.551 28.2443 28.712 28.0783C28.989 27.7693 28.941 27.3053 28.618 27.0463C25.276 24.3923 25.124 19.1163 25.124 19.0343C25.115 18.6203 24.763 18.3103 24.343 18.3103H24.324C23.896 18.3103 23.554 18.6513 23.563 19.0543C23.563 19.3023 23.705 25.0743 27.609 28.1613ZM87.816 32.4683C88.692 32.9123 89.14 33.2213 89.14 33.4183C89.14 33.6033 89.025 33.8823 88.816 34.2533C88.626 34.6053 88.369 34.8733 88.073 35.0293L75.03 41.9783C74.935 42.0513 74.849 42.0813 74.763 42.0813C74.574 42.0813 74.478 41.9783 74.478 41.7303C74.478 41.4823 74.564 41.1623 74.735 40.7913C74.925 40.3883 75.173 40.1093 75.478 39.9443L86.579 33.8313C86.626 33.8093 86.636 33.7893 86.617 33.7693C86.617 33.7173 86.588 33.6863 86.55 33.6653L75.221 27.5523C74.948 27.3933 74.74 27.1273 74.64 26.8093C74.506 26.4373 74.449 26.1273 74.449 25.8693C74.449 25.6113 74.564 25.4773 74.802 25.4773C74.859 25.4773 74.964 25.4983 75.087 25.5493L87.807 32.4683H87.816Z" fill="#060000"/>
<path d="M64.5622 44.515C64.3432 44.515 64.1812 44.463 64.0762 44.35C63.9822 44.247 63.9822 44.143 64.0382 43.999L73.6542 19.598C73.7422 19.385 73.9072 19.221 74.1112 19.144C74.3212 19.04 74.5882 19 74.9202 19C75.1112 19 75.2442 19.062 75.3012 19.175C75.3962 19.289 75.3962 19.433 75.3392 19.588L65.7232 43.999C65.6382 44.205 65.4952 44.35 65.3052 44.413C65.1142 44.485 64.8672 44.515 64.5622 44.515Z" fill="#060000"/>
<path d="M1.33301 34.8845C0.448008 34.4395 0 34.1205 0 33.9345C0 33.7475 0.105008 33.4795 0.305008 33.1285C0.514008 32.7565 0.781004 32.4885 1.076 32.3225L14.118 25.3745C14.234 25.3015 14.31 25.2705 14.385 25.2705C14.576 25.2705 14.671 25.3745 14.671 25.6105C14.671 25.8685 14.576 26.1995 14.385 26.6025C14.205 26.9735 13.967 27.2435 13.672 27.4085L2.57001 33.5105C2.52301 33.5415 2.504 33.5725 2.504 33.6135C2.532 33.6445 2.564 33.6675 2.599 33.6865L13.929 39.7995C14.186 39.9445 14.385 40.2025 14.509 40.5735C14.643 40.9255 14.7 41.2255 14.7 41.4835C14.7 41.7415 14.586 41.8755 14.347 41.8755C14.281 41.8755 14.186 41.8445 14.062 41.8035L1.33301 34.8845Z" fill="#060000"/>
</svg>
