<?xml version="1.0" encoding="utf-8"?>
<svg viewBox="0 0 500 500" xmlns="http://www.w3.org/2000/svg">
  <path d="M 186.173 65.829 C 186.079 65.9 183.908 67.512 180.718 68.699 C 185.412 74.431 184.812 82.702 184.784 83.074 C 184.756 83.435 184.451 83.724 184.06 83.755 C 183.711 83.775 176.949 84.208 171.18 81.388 C 170.6 80.947 169.741 80.49 169.147 80.286 C 169.152 80.265 169.156 80.244 169.16 80.223 C 169.03 80.139 168.902 80.051 168.775 79.961 C 168.531 79.713 168.164 79.488 167.964 79.33 C 167.95 79.318 167.937 79.307 167.923 79.295 L 167.923 79.296 C 167.898 79.274 167.876 79.254 167.86 79.236 C 167.779 79.146 167.845 79.145 167.747 79.049 C 167.583 78.888 167.035 78.4 166.502 78.013 C 166.503 77.986 166.503 77.959 166.504 77.931 C 164.426 75.51 163.022 72.498 162.459 69.247 C 161.918 72 160.803 75.194 158.529 77.797 C 158.494 77.818 158.462 77.841 158.432 77.867 C 158.33 77.957 158.261 78.076 158.193 78.205 C 158.173 78.216 158.153 78.227 158.134 78.238 C 157.872 78.392 157.629 78.618 157.427 78.87 C 157.058 79.068 156.724 79.299 156.511 79.516 C 156.398 79.632 156.285 79.771 156.182 79.922 C 156.091 79.989 155.999 80.054 155.907 80.118 C 155.894 80.123 155.881 80.129 155.868 80.134 C 155.512 80.281 155.274 80.448 154.97 80.732 C 154.929 80.771 154.884 80.814 154.837 80.86 C 154.554 80.954 154.286 81.072 154.126 81.192 L 154.125 81.193 C 148.278 84.23 141.205 83.776 140.847 83.755 C 140.467 83.724 140.162 83.445 140.132 83.074 C 140.104 82.702 139.495 74.431 144.197 68.699 C 142.277 67.992 140.444 67.028 138.743 65.829 C 138.584 65.713 138.48 65.528 138.457 65.323 C 138.428 65.127 138.495 64.931 138.629 64.785 C 138.838 64.559 143.637 59.334 150.433 58.817 C 152.521 58.707 154.611 58.965 156.622 59.582 C 156.46 59.199 156.403 58.807 156.451 58.425 C 156.736 55.637 161.906 53.056 162.487 52.776 C 162.71 52.667 162.966 52.664 163.191 52.766 C 163.248 52.797 164.81 53.51 166.361 54.543 C 168.608 56.04 169.684 57.465 169.542 58.777 C 169.521 58.945 169.483 59.112 169.427 59.272 C 171.085 58.867 172.786 58.714 174.482 58.817 C 181.28 59.334 186.079 64.559 186.288 64.785 C 186.415 64.929 186.478 65.125 186.459 65.323 C 186.436 65.528 186.332 65.713 186.173 65.829 Z M 183.242 82.309 C 183.28 80.099 183.031 72.798 178.366 68.411 C 173.692 64.032 165.896 63.795 163.544 63.836 C 163.506 66.046 163.743 73.336 168.428 77.735 C 173.092 82.124 180.89 82.351 183.242 82.309 Z M 141.665 82.321 C 144.017 82.351 151.796 82.124 156.48 77.735 C 156.632 77.591 156.781 77.443 156.927 77.291 C 161.163 72.882 161.401 65.973 161.354 63.836 C 159.003 63.795 151.224 64.022 146.54 68.411 C 141.875 72.798 141.627 80.099 141.665 82.309 Z M 150.557 60.284 C 145.693 60.645 141.828 63.826 140.408 65.147 C 141.322 65.747 143.093 66.768 145.283 67.522 L 145.435 67.378 C 149.653 63.422 155.918 62.545 159.468 62.391 L 159.345 62.318 L 158.869 62.009 L 158.831 61.997 C 156.832 61.079 153.766 60.036 150.548 60.284 Z M 165.467 55.74 C 164.438 55.059 163.391 54.511 162.859 54.254 C 160.926 55.255 158.155 57.144 158.002 58.569 C 157.85 59.943 160.84 61.585 162.535 62.277 C 164.42 61.636 167.828 60.056 167.989 58.621 C 168.065 57.919 167.143 56.866 165.467 55.74 Z M 174.359 60.284 C 172.122 60.157 169.885 60.504 167.771 61.305 L 167.761 61.305 C 167.193 61.729 166.595 62.102 165.971 62.421 C 169.589 62.638 175.463 63.608 179.481 67.378 L 179.633 67.522 C 181.822 66.768 183.594 65.736 184.508 65.147 C 183.098 63.826 179.233 60.645 174.359 60.284 Z" style="fill: rgb(6, 0, 0);" transform="matrix(-1, 0, 0, -1, 427.939148, 295.80423)"/>
</svg>