<?xml version="1.0" encoding="utf-8"?>
<svg viewBox="0 0 500 500" xmlns="http://www.w3.org/2000/svg">
  <path d="M 204.848 229.975 C 204.754 229.904 202.583 228.292 199.393 227.105 C 204.087 221.373 203.487 213.102 203.459 212.73 C 203.431 212.369 203.126 212.08 202.735 212.049 C 202.373 212.028 195.128 211.564 189.235 214.734 C 187.731 208.496 182.456 203.788 182.228 203.581 C 181.929 203.336 181.52 203.323 181.21 203.551 C 180.943 203.747 174.869 208.3 172.993 214.713 C 167.11 211.564 159.884 212.028 159.522 212.049 C 159.142 212.08 158.837 212.359 158.807 212.73 C 158.779 213.102 158.17 221.373 162.872 227.105 C 160.952 227.812 159.119 228.776 157.418 229.975 C 157.259 230.091 157.155 230.276 157.132 230.481 C 157.103 230.677 157.17 230.873 157.304 231.019 C 157.513 231.245 162.312 236.47 169.108 236.987 C 171.196 237.097 173.286 236.839 175.297 236.222 C 175.135 236.605 175.078 236.997 175.126 237.379 C 175.411 240.167 180.581 242.748 181.162 243.028 C 181.385 243.137 181.641 243.14 181.866 243.038 C 181.923 243.007 183.485 242.294 185.036 241.261 C 187.283 239.764 188.359 238.339 188.217 237.027 C 188.196 236.859 188.158 236.692 188.102 236.532 C 189.76 236.937 191.461 237.09 193.157 236.987 C 199.955 236.47 204.754 231.245 204.963 231.019 C 205.09 230.875 205.153 230.679 205.134 230.481 C 205.111 230.276 205.007 230.091 204.848 229.975 Z M 201.917 213.495 C 201.955 215.705 201.706 223.006 197.041 227.393 C 192.367 231.772 184.571 232.009 182.219 231.968 C 182.181 229.758 182.418 222.468 187.103 218.069 C 191.767 213.68 199.565 213.453 201.917 213.495 Z M 181.134 226.557 C 180.572 223.697 179.391 220.362 176.934 217.707 C 177.249 214.259 180.182 211.388 181.409 210.335 C 182.514 211.471 185.103 214.486 185.179 217.873 C 183.101 220.294 181.697 223.306 181.134 226.557 Z M 181.647 205.121 C 183.009 206.473 186.836 210.613 187.835 215.581 C 187.408 215.859 186.997 216.17 186.598 216.509 C 185.837 212.225 182.161 208.941 181.99 208.786 C 181.694 208.537 181.284 208.521 180.971 208.745 C 180.781 208.889 176.582 212.038 175.564 216.428 C 175.183 216.117 174.782 215.818 174.383 215.55 C 175.688 210.438 180.114 206.4 181.647 205.121 Z M 160.34 213.483 C 162.692 213.453 170.471 213.68 175.155 218.069 C 175.307 218.213 175.456 218.361 175.602 218.513 C 179.838 222.922 180.076 229.831 180.029 231.968 C 177.678 232.009 169.899 231.782 165.215 227.393 C 160.55 223.006 160.302 215.705 160.34 213.495 Z M 169.232 235.52 C 164.368 235.159 160.503 231.978 159.083 230.657 C 159.997 230.057 161.768 229.036 163.958 228.282 L 164.11 228.426 C 168.328 232.382 174.593 233.259 178.143 233.413 L 178.02 233.486 L 177.544 233.795 L 177.506 233.807 C 175.507 234.725 172.441 235.768 169.223 235.52 Z M 184.142 240.064 C 183.113 240.745 182.066 241.293 181.534 241.55 C 179.601 240.549 176.83 238.66 176.677 237.235 C 176.525 235.861 179.515 234.219 181.21 233.527 C 183.095 234.168 186.503 235.748 186.664 237.183 C 186.74 237.885 185.818 238.938 184.142 240.064 Z M 193.034 235.52 C 190.797 235.647 188.56 235.3 186.446 234.499 L 186.436 234.499 C 185.868 234.075 185.27 233.702 184.646 233.383 C 188.264 233.166 194.138 232.196 198.156 228.426 L 198.308 228.282 C 200.497 229.036 202.269 230.068 203.183 230.657 C 201.773 231.978 197.908 235.159 193.034 235.52 Z" style="fill: rgb(6, 0, 0);"/>
  <path d="M 195.261 226.496 C 195.461 226.496 195.661 226.412 195.822 226.269 C 199.402 222.861 198.993 217.098 198.964 216.862 C 198.935 216.448 198.555 216.149 198.136 216.18 C 197.707 216.211 197.374 216.562 197.413 216.964 C 197.413 217.017 197.793 222.303 194.709 225.246 C 194.403 225.511 194.403 226.014 194.709 226.279 C 194.87 226.423 195.061 226.485 195.261 226.485 Z M 167.699 226.175 C 167.845 226.29 168.022 226.351 168.203 226.35 C 168.422 226.35 168.641 226.258 168.802 226.092 C 169.079 225.783 169.031 225.319 168.708 225.06 C 165.366 222.406 165.214 217.13 165.214 217.048 C 165.205 216.634 164.853 216.324 164.433 216.324 L 164.414 216.324 C 163.986 216.324 163.644 216.665 163.653 217.068 C 163.653 217.316 163.795 223.088 167.699 226.175 Z" style="fill: rgb(6, 0, 0);"/>
  <path d="M 141.423 232.898 C 140.538 232.453 140.09 232.134 140.09 231.948 C 140.09 231.761 140.195 231.493 140.395 231.142 C 140.604 230.77 140.871 230.502 141.166 230.336 L 154.208 223.388 C 154.324 223.315 154.4 223.284 154.475 223.284 C 154.666 223.284 154.761 223.388 154.761 223.624 C 154.761 223.882 154.666 224.213 154.475 224.616 C 154.295 224.987 154.057 225.257 153.762 225.422 L 142.66 231.524 C 142.613 231.555 142.594 231.586 142.594 231.627 C 142.622 231.658 142.654 231.681 142.689 231.7 L 154.019 237.813 C 154.276 237.958 154.475 238.216 154.599 238.587 C 154.733 238.939 154.79 239.239 154.79 239.497 C 154.79 239.755 154.676 239.889 154.437 239.889 C 154.371 239.889 154.276 239.858 154.152 239.817 L 141.423 232.898 Z" style="fill: rgb(6, 0, 0);"/>
</svg>