<svg width="30" height="32" viewBox="0 0 30 32" fill="none" xmlns="http://www.w3.org/2000/svg">
<path d="M29.3349 24.5186C29.3909 24.6786 29.4289 24.8456 29.4499 25.0136C29.5919 26.3256 28.5159 27.7506 26.2689 29.2476C24.7179 30.2806 23.1559 30.9936 23.0989 31.0246C22.8739 31.1266 22.6179 31.1236 22.3949 31.0146C21.8239 30.7396 16.8229 28.2426 16.3779 25.5106C16.3999 25.4436 16.4199 25.3786 16.4369 25.3166C16.4309 25.2356 16.4289 25.1536 16.4329 25.0716C16.4329 25.0506 16.4329 25.0296 16.4339 25.0096C16.4389 24.8196 16.4599 24.6386 16.5139 24.4526C16.5049 24.4136 16.4929 24.3766 16.4789 24.3396C16.4949 24.2956 16.5119 24.2526 16.5299 24.2086C16.5249 24.2106 16.5199 24.2116 16.5149 24.2136C16.5959 23.9836 16.6739 23.7936 16.7479 23.6956C16.8299 23.5886 16.8919 23.5596 16.9589 23.5296C17.2139 23.1226 17.6039 22.5866 18.0149 22.1616C18.0159 22.1436 18.0169 22.1266 18.0169 22.1096C18.0449 22.0976 18.0729 22.0866 18.1009 22.0746C18.1519 22.0246 18.2029 21.9766 18.2539 21.9306C18.4549 21.7496 18.6959 21.5556 18.9439 21.3776C15.3869 21.1746 9.56291 20.2396 5.51591 16.5726C5.51591 16.5706 5.5149 16.5676 5.5149 16.5656C5.1859 16.3296 4.7499 15.8826 4.6309 15.6896C4.6309 15.6886 4.62991 15.6876 4.62991 15.6876C4.42991 15.4306 4.21791 15.0896 4.11291 14.9886C4.05091 14.9286 4.02291 14.9486 3.98291 14.9106C3.93591 14.8666 3.9289 14.7866 3.8529 14.7286C3.8339 14.7136 3.8089 14.6976 3.7799 14.6796C-0.568098 8.97162 0.012912 1.07963 0.039912 0.716627C0.069912 0.345627 0.374908 0.0666268 0.754908 0.0356268C1.11391 0.0146268 8.20891 -0.440362 14.0609 2.61264C14.1169 2.65864 14.1739 2.70663 14.2329 2.75363C14.5519 2.91563 14.8789 3.09063 15.1549 3.24963C15.7399 3.58663 16.6319 4.12064 17.2789 4.57164C17.6789 4.92264 18.1379 5.30963 18.5119 5.59663C18.8709 6.09563 19.2609 6.71764 19.4869 7.12564C19.6599 7.43964 19.8339 7.77262 19.9429 8.05462C20.1609 8.41162 20.3629 8.77362 20.5489 9.13862C20.9749 9.78262 21.7399 11.7566 22.1509 13.2586C22.2609 13.6606 22.3769 14.1476 22.4889 14.6696C22.5399 14.7806 22.5899 14.8956 22.6379 15.0116C22.8849 17.0626 23.3219 19.8666 23.5499 20.3286C23.6459 20.5256 23.7219 20.4696 23.8349 20.4846C23.8589 20.4876 23.8869 20.4886 23.9159 20.4866C23.9359 20.5026 23.9559 20.5186 23.9759 20.5346C24.0459 20.5446 24.1169 20.5576 24.1889 20.5736C24.7419 20.6976 25.5589 20.9846 26.2099 21.3506C26.9009 21.7396 27.8689 22.5226 28.2059 22.8806C28.2199 22.8956 28.2329 22.9106 28.2449 22.9246C28.4259 23.0746 28.5879 23.2276 28.7179 23.3836C28.7849 23.4646 28.8489 23.5426 28.9089 23.6196C29.0039 23.7956 29.1489 24.0066 29.2819 24.2286C29.3049 24.3286 29.3289 24.4276 29.3539 24.5236C29.3479 24.5216 29.3409 24.5206 29.3349 24.5186ZM1.5729 1.48163C1.5349 3.69163 1.7829 10.9926 6.4479 15.3796C11.1319 19.7686 18.9109 19.9956 21.2619 19.9546C21.3089 17.8176 21.0709 10.9086 16.8349 6.49963C16.6889 6.34763 16.5399 6.19963 16.3879 6.05563C11.7039 1.66663 3.9249 1.43963 1.5729 1.46963V1.48163ZM27.8969 25.1696C27.7359 23.7346 24.3279 22.1546 22.4429 21.5136C20.7479 22.2056 17.7579 23.8476 17.9099 25.2216C18.0629 26.6466 20.8339 28.5356 22.7669 29.5366C23.2989 29.2796 24.3459 28.7316 25.3749 28.0506C27.0509 26.9246 27.9729 25.8716 27.8969 25.1696Z" fill="#060000"/>
</svg>
